<?xml version="1.0" encoding="UTF-8"?>
<svg id="Layer_1" data-name="Layer 1" xmlns="http://www.w3.org/2000/svg" viewBox="0 0 320.43 256.42">
  <defs>
    <style>
      .cls-1 {
        fill: #e6ecf4;
      }
    </style>
  </defs>
  <path class="cls-1" d="M156.24,4.91c8.91,8.96,3.33,20.63-4.98,27.47,46.87-1.21,102.17,8.33,139.1,39.03,39.81,33.1,40.12,79.49.75,113.21-6.61,5.66-25.53,18.93-33.75,19.52s-17.28-6.74-17.63-15.41c-.56-13.86,14.07-17.04,23.2-23.28,39.63-27.09,28.51-58.47-8.92-79.45-30.34-17.01-67.59-21.95-102.02-21.35,1.75,2.53,4.41,4.44,5.98,7.13,9.25,15.85-9.36,32.47-23.99,20.99-4.84-3.8-33.82-32.62-36.02-36.73-3.35-6.26-2.34-12.29,1.65-17.89,5.03-7.05,25.76-27.31,32.86-33.14s16.58-7.3,23.74-.1Z"/>
  <path class="cls-1" d="M168.51,192.13c-2.96-3.6-6.9-7.11-7.92-11.95-3.16-15.12,13.8-25.56,25.93-16.19,7.85,6.06,23.98,22.65,31.12,30.38,5.9,6.39,9.04,12.41,5.24,21.01-1.94,4.4-30.2,32.77-35.27,36.73-12.81,10-29.46,1.47-27.29-14.54.83-6.12,5.46-8.79,8.93-13.18-42.04,1.08-87.42-6.03-123.69-28.2-52.67-32.19-63.61-87.21-11.99-127.36,5.4-4.2,21.26-14.96,27.47-16.02,8.22-1.41,16.59,3.33,18.9,11.49,4.57,16.13-12.27,20.15-22.38,27.02-39.58,26.9-28.51,58.64,8.92,79.45,30.46,16.94,67.51,21.98,102.02,21.35Z"/>
</svg>