<?xml version="1.0" encoding="UTF-8"?>
<svg id="Layer_1" xmlns="http://www.w3.org/2000/svg" version="1.1" viewBox="0 0 100 125">
  <!-- Generator: Adobe Illustrator 30.0.0, SVG Export Plug-In . SVG Version: 2.1.1 Build 123)  -->
  <defs>
    <style>
      .st0 {
        fill: #e6ecf4;
      }
    </style>
  </defs>
  <path class="st0" d="M86.05,29.46c-.92-4.07-4.52-6.84-8.51-6.84-.64,0-1.29.07-1.94.22-.54.12-1.06.3-1.55.51l-1.7-3.64c-1.49-3.18-4.63-5.05-7.91-5.05-1.24,0-2.51.27-3.71.84-1.03.49-1.91,1.17-2.65,1.97l-1.64-2.51c-1.68-2.56-4.47-3.96-7.31-3.96-1.64,0-3.31.47-4.79,1.44h0c-2.39,1.57-3.74,4.13-3.91,6.79l-3.64-2.44c-1.48-.99-3.17-1.48-4.84-1.47-2.82,0-5.59,1.37-7.28,3.91-.99,1.49-1.47,3.19-1.47,4.86,0,2.83,1.37,5.62,3.89,7.31,0,0,0,0,0,0,.02.01.1.07.26.18.62.44,2.22,1.57,3.78,2.8.78.62,1.55,1.26,2.17,1.84.62.57,1.09,1.12,1.23,1.35.16.26.34.69.51,1.22.3.94.54,2.2.73,3.53.28,2,.43,4.17.51,5.83.02.37.03.7.04,1.01-.03,0-.07-.01-.1-.02-.35-.08-.7-.16-.96-.25-.13-.04-.24-.08-.31-.11l-.06-.03c-.1-.08-.3-.26-.51-.53-.4-.49-.88-1.21-1.34-2.01-.7-1.2-1.39-2.56-1.89-3.6-.25-.52-.46-.97-.6-1.29-.07-.16-.13-.28-.17-.37l-.06-.13-.08-.17c-1.63-2.76-4.54-4.3-7.52-4.3-1.52,0-3.06.4-4.45,1.23h0c-2.75,1.64-4.28,4.56-4.28,7.55,0,1.51.4,3.05,1.21,4.44h0s1.03,1.83,2.25,3.94c.61,1.06,1.27,2.19,1.88,3.2.61,1.02,1.16,1.91,1.59,2.53h0c.95,1.4,2.23,3.44,3.71,5.77,2.23,3.49,4.93,7.62,7.83,11.26,1.45,1.82,2.95,3.52,4.49,4.97,1.54,1.45,3.1,2.65,4.74,3.44,4.4,2.14,9.6,3.29,14.86,3.29,6.78,0,13.72-1.92,19.15-6.27,2.07-1.67,3.74-3.86,5.11-6.27,4.09-7.25,5.6-16.59,6.04-21.14h0c.11-1.15.15-2.61.15-4.28,0-7.87-.92-20.34-.92-20.36l-.03-.22ZM34.9,48.76h0ZM83.89,54.04c-.26,2.84-1.02,7.85-2.62,12.8-.8,2.48-1.8,4.95-3.04,7.13-1.24,2.18-2.7,4.07-4.39,5.42-4.77,3.84-11.05,5.62-17.29,5.62-4.83,0-9.61-1.07-13.56-2.99-1.65-.79-3.52-2.35-5.39-4.33-2.81-2.98-5.63-6.92-8.1-10.65-2.48-3.73-4.59-7.24-6.11-9.47h0c-.36-.52-.9-1.4-1.5-2.39-.9-1.49-1.92-3.26-2.72-4.65-.4-.7-.74-1.3-.99-1.73s-.39-.68-.39-.68c0,0-.01-.02-.02-.03h0c-.55-.93-.81-1.94-.81-2.95,0-1.98,1-3.9,2.82-4.98h0c.93-.55,1.93-.81,2.93-.81,1.95,0,3.84.99,4.92,2.78.18.41.88,1.97,1.78,3.69.52,1,1.11,2.06,1.72,2.99.31.47.61.9.93,1.3.32.39.65.74,1.05,1.04h0c.25.19.48.29.71.39.4.17.81.29,1.23.39,1.25.31,2.59.48,2.62.48.43.05.85-.08,1.18-.37.32-.29.5-.69.5-1.13,0-.02-.02-2.77-.29-5.96-.14-1.6-.33-3.31-.63-4.87-.15-.78-.33-1.52-.54-2.21-.22-.69-.47-1.31-.8-1.88-.25-.41-.55-.77-.89-1.15-.6-.65-1.35-1.33-2.15-2-2.4-2.01-5.25-3.95-5.27-3.97,0,0,0,0-.01,0h0c-1.67-1.12-2.56-2.94-2.56-4.82,0-1.1.31-2.21.97-3.2,1.11-1.67,2.93-2.57,4.8-2.58,1.1,0,2.2.31,3.19.97h0l6.19,4.14,3.23,4.05c.56.7,1.22,1.84,1.75,3.03.53,1.18.94,2.44,1.08,3.33l1.56,9.45c.13.81.9,1.37,1.72,1.23.81-.14,1.36-.91,1.23-1.72l-1.56-9.45c-.21-1.27-.69-2.69-1.3-4.06-.61-1.37-1.34-2.67-2.15-3.68l-3.19-3.99c-.2-.6-.31-1.21-.31-1.83,0-1.89.91-3.72,2.59-4.83h0c.98-.65,2.06-.95,3.15-.95,1.88,0,3.71.92,4.82,2.61h0s2.77,4.24,2.77,4.24l1.79,3.75c.41.85.84,2.13,1.16,3.43.32,1.3.54,2.63.57,3.57l.31,7.86c.03.83.73,1.47,1.55,1.44.82-.03,1.46-.73,1.43-1.56l-.31-7.86c-.05-1.25-.3-2.72-.66-4.18-.36-1.45-.83-2.87-1.36-4l-1.49-3.11c.56-.83,1.32-1.52,2.28-1.97h0c.79-.38,1.62-.55,2.44-.55,2.16,0,4.24,1.23,5.22,3.33l2.29,4.9c.07.43.23,1.49.43,2.73.11.73.23,1.89.31,3.12.08,1.23.13,2.53.13,3.58v4.08c0,.83.67,1.5,1.49,1.5s1.49-.67,1.49-1.5v-4.08c0-1.15-.05-2.5-.14-3.78-.09-1.29-.2-2.49-.34-3.38-.11-.74-.22-1.41-.3-1.93.39-.19.8-.36,1.25-.46h0c.43-.1.86-.15,1.28-.15,2.6,0,4.95,1.79,5.58,4.43.02.28.07.95.13,1.91.26,3.86.77,12.33.77,18.08,0,1.62-.04,3.02-.13,4Z"/>
</svg>