<?xml version="1.0" encoding="UTF-8"?>
<svg id="Layer_1" xmlns="http://www.w3.org/2000/svg" version="1.1" viewBox="0 0 800 800">
  <!-- Generator: Adobe Illustrator 30.0.0, SVG Export Plug-In . SVG Version: 2.1.1 Build 123)  -->
  <defs>
    <style>
      .st0 {
        fill: #e6ecf4;
      }
    </style>
  </defs>
  <path class="st0" d="M766.23,285.55c-8.67-20.61-23.08-35.47-41.67-42.95l-.25-.09c-8.46-3.31-17.47-5.01-26.56-5h-1c-42.56.64-86.02,36.81-108.11,90.02-16.2,38.91-18.06,80.75-4.97,111.94,8.66,20.63,23.09,35.48,41.77,42.97l.2.08c8.46,3.31,17.47,5.01,26.56,5,42.97,0,86.88-36.17,109.38-90.08,16-38.86,17.77-80.67,4.66-111.88h-.01Z"/>
  <path class="st0" d="M596.17,515.02c-24.55-14.75-47.75-28.7-62.91-53.77-41.81-69.37-67.06-111.25-133.27-111.25s-91.52,41.88-133.42,111.25c-15.19,25.09-38.44,39.06-63.06,53.88-28.23,16.97-57.41,34.5-70,69-4.9,12.44-7.36,25.7-7.27,39.06,0,56.17,43.75,101.88,97.5,101.88,27.73,0,57.25-9.61,88.48-19.78,30.03-9.78,61.08-19.89,87.92-19.89s57.81,10.11,87.73,19.89c31.17,10.11,60.55,19.72,88.36,19.72,53.67,0,97.34-45.7,97.34-101.88.04-13.38-2.48-26.64-7.42-39.06-12.59-34.53-41.78-52.08-70-69.05h.02Z"/>
  <path class="st0" d="M234.38,295.08c18.59,23.33,42.19,36.17,66.44,36.17,3.31,0,6.62-.25,9.89-.73,50.58-7.44,82.09-69.16,71.75-140.62-4.33-30.05-15.89-58.03-32.45-78.78-18.56-23.28-42.19-36.11-66.42-36.11-3.31,0-6.62.25-9.89.73-50.58,7.44-82.09,69.16-71.75,140.62,4.31,30,15.87,57.95,32.44,78.72h-.01Z"/>
  <path class="st0" d="M489.31,330.52c3.27.49,6.58.73,9.89.73,24.27,0,47.84-12.84,66.44-36.17,16.55-20.77,28.05-48.72,32.42-78.75h0c10.34-71.44-21.17-133.16-71.75-140.62-3.27-.49-6.58-.73-9.89-.73-24.23.03-47.86,12.86-66.42,36.14-16.56,20.75-28.12,48.73-32.44,78.81-10.34,71.44,21.17,133.16,71.75,140.59h0Z"/>
  <path class="st0" d="M174.36,482.5l.22-.08c18.64-7.48,33.06-22.33,41.7-42.94,13.09-31.25,11.25-73.05-4.92-111.95-22.39-53.84-66.28-90.03-109.2-90.03-9.09,0-18.1,1.68-26.56,5l-.22.08c-18.59,7.42-33.02,22.33-41.66,42.94-13.09,31.25-11.25,73.05,4.92,111.95,22.39,53.84,66.28,90.03,109.2,90.03,9.07,0,18.07-1.69,26.52-5h0Z"/>
</svg>